<?xml version="1.0" standalone="no"?>
<!DOCTYPE svg PUBLIC "-//W3C//DTD SVG 20010904//EN"
 "http://www.w3.org/TR/2001/REC-SVG-20010904/DTD/svg10.dtd">
<svg version="1.0" xmlns="http://www.w3.org/2000/svg"
 width="300.000000pt" height="301.000000pt" viewBox="0 0 300.000000 301.000000"
 preserveAspectRatio="xMidYMid meet">
<metadata>
Created by potrace 1.10, written by Peter Selinger 2001-2011
</metadata>
<g transform="translate(0.000000,301.000000) scale(0.100000,-0.100000)"
fill="#000000" stroke="none">
<path d="M1330 2954 c-81 -10 -201 -38 -284 -66 -495 -166 -855 -571 -968
-1091 -32 -148 -32 -427 0 -576 63 -291 181 -513 382 -725 198 -207 468 -354
770 -417 136 -28 378 -31 519 -5 589 107 1045 547 1176 1136 26 116 32 403 10
532 -20 124 -79 306 -133 415 -165 328 -464 595 -802 718 -157 56 -271 76
-460 80 -96 2 -191 1 -210 -1z m447 -63 c489 -100 886 -445 1051 -912 60 -171
77 -274 76 -474 0 -146 -5 -199 -22 -282 -60 -279 -184 -507 -386 -709 -200
-199 -420 -321 -696 -385 -111 -26 -365 -36 -481 -20 -581 83 -1040 493 -1183
1059 -81 321 -43 669 106 967 122 244 323 458 562 597 143 84 347 152 531 177
106 15 325 6 442 -18z"/>
<path d="M1457 2551 c-27 -11 -63 -31 -81 -44 -36 -28 -85 -112 -72 -124 5 -4
11 -2 13 5 3 7 19 32 37 55 42 56 115 92 184 92 49 0 56 -3 87 -37 19 -20 37
-50 41 -65 12 -58 14 -60 36 -30 22 30 40 34 57 13 10 -11 8 -16 -6 -24 -10
-6 -15 -14 -11 -17 4 -4 18 2 32 12 36 29 108 46 162 40 96 -10 129 -98 71
-186 -15 -23 -27 -43 -27 -46 0 -11 22 -4 50 16 21 16 37 20 59 16 23 -5 31
-3 31 8 0 14 -16 19 -52 16 -15 -2 -16 5 -11 48 11 98 -38 151 -141 151 -31 0
-73 -7 -93 -15 -34 -14 -37 -14 -50 5 -15 21 -48 27 -58 10 -11 -18 -21 -11
-34 25 -29 80 -129 114 -224 76z"/>
<path d="M1182 2509 c-45 -23 -77 -59 -87 -101 -6 -25 -8 -25 -33 -12 -92 48
-272 -26 -272 -112 0 -18 5 -36 10 -39 15 -9 12 -25 -4 -25 -7 0 -19 -6 -25
-14 -9 -11 -6 -17 14 -30 14 -9 25 -22 25 -28 0 -9 -3 -9 -12 0 -22 22 -94 14
-128 -14 -66 -56 -79 -127 -31 -175 l29 -29 -26 -6 c-37 -9 -92 -51 -92 -71 0
-11 6 -14 23 -9 52 15 107 19 107 7 0 -6 -5 -11 -12 -11 -26 0 -77 -52 -94
-95 -14 -38 -15 -52 -5 -85 21 -71 95 -105 164 -76 l37 15 0 -30 c0 -18 5 -29
14 -29 17 0 22 -18 37 -138 9 -74 9 -104 -1 -147 -7 -31 -11 -85 -8 -131 4
-65 11 -91 41 -151 60 -119 182 -234 327 -309 42 -22 70 -29 120 -31 76 -2 77
-4 79 -122 1 -65 -2 -78 -25 -108 -29 -38 -27 -51 5 -34 40 22 54 68 48 153
-4 43 -11 86 -16 96 -9 16 -1 22 61 47 107 41 202 101 287 182 67 62 141 166
129 179 -3 2 -21 -20 -42 -50 -79 -114 -231 -229 -379 -287 -72 -27 -91 -31
-152 -27 -61 4 -81 11 -140 46 -180 105 -285 236 -315 388 -9 46 -9 75 -1 113
15 71 14 170 -4 270 -8 47 -13 99 -11 115 17 108 14 102 56 115 22 6 59 30 82
51 23 22 42 40 44 40 1 0 5 -12 8 -26 17 -68 97 -144 151 -144 19 0 19 3 -5
47 -23 43 -25 71 -8 128 l11 40 9 -45 c15 -82 82 -143 152 -138 44 3 64 28 22
28 -28 0 -46 25 -46 64 0 25 2 24 43 -18 66 -66 167 -82 236 -37 11 7 23 2 44
-15 22 -19 40 -24 82 -24 46 0 55 -3 60 -21 4 -12 26 -29 50 -40 30 -13 45
-26 47 -41 2 -14 12 -24 28 -28 l25 -6 -23 -6 c-19 -5 -22 -11 -17 -28 9 -30
11 -271 1 -297 -4 -13 -3 -23 1 -23 5 0 23 31 40 70 35 78 74 110 135 110 71
0 105 -73 73 -155 -28 -76 -99 -119 -157 -97 -20 7 -30 7 -34 0 -11 -17 26
-38 63 -38 108 0 194 138 153 246 -9 23 -7 38 14 84 14 30 28 75 32 99 l7 43
42 -7 c98 -14 195 45 195 119 0 59 -53 117 -134 146 -23 8 -27 13 -17 23 13
13 113 15 149 3 35 -13 28 16 -10 39 -24 14 -51 20 -99 20 l-67 0 26 30 c49
59 66 138 41 202 -29 77 -127 124 -220 104 -60 -13 -132 -48 -124 -61 3 -5 24
0 46 12 84 43 181 33 238 -26 67 -69 48 -184 -42 -261 -22 -19 -38 -37 -36
-40 3 -2 29 2 59 10 72 19 123 19 62 0 -84 -26 -94 -54 -26 -74 26 -8 63 -30
86 -51 35 -35 39 -42 36 -81 -3 -36 -8 -47 -37 -66 -41 -28 -116 -30 -176 -6
-22 9 -62 15 -89 14 l-49 -2 6 31 c8 36 -9 41 -23 5 -18 -47 9 -69 73 -59 19
3 39 0 49 -8 16 -12 17 -17 3 -69 -8 -31 -22 -73 -30 -93 -15 -35 -16 -36 -38
-21 -45 32 -115 12 -161 -47 l-26 -33 0 70 c0 39 -4 85 -9 103 -9 30 -7 34 15
44 33 15 30 37 -6 44 -35 7 -41 34 -7 34 36 0 94 19 119 39 34 28 17 34 -33
11 -52 -23 -116 -26 -164 -5 -49 20 -55 42 -19 70 38 30 25 44 -14 15 -17 -12
-50 -24 -75 -27 -38 -5 -48 -2 -77 24 -25 22 -33 39 -37 76 -8 65 -29 56 -25
-11 2 -50 2 -50 -34 -62 -79 -26 -172 9 -200 76 -16 39 -24 41 -47 16 -19 -21
-22 -73 -7 -103 16 -29 -4 -24 -44 11 -44 39 -60 86 -52 153 l7 52 -35 -38
c-43 -47 -63 -122 -47 -168 16 -45 15 -46 -20 -13 -36 33 -79 117 -79 154 0
34 -15 57 -23 37 -3 -8 -3 -24 -1 -34 4 -14 -7 -31 -37 -57 -57 -52 -122 -80
-170 -73 -28 4 -39 1 -39 -8 0 -14 21 -25 49 -25 14 0 17 -6 13 -30 -2 -16 -8
-28 -12 -25 -4 2 -24 -5 -46 -15 -56 -29 -99 -26 -135 9 -55 55 -27 144 59
186 23 11 42 25 42 32 0 16 -36 26 -90 25 -41 0 -43 1 -26 14 11 7 36 16 55
19 52 8 109 27 129 41 23 17 6 31 -18 16 -32 -20 -84 -15 -108 11 -66 70 29
193 122 157 15 -5 32 -8 37 -4 14 8 11 36 -7 56 -16 16 -15 18 0 24 10 4 28 2
42 -5 30 -13 94 -15 94 -2 0 5 -17 12 -37 16 -113 21 -134 92 -43 144 79 44
181 36 228 -17 l24 -27 -6 37 c-8 45 10 84 54 122 41 34 57 33 31 0 -27 -34
-28 -95 -3 -117 23 -21 32 -21 32 -3 0 8 -7 16 -15 20 -29 11 -18 65 20 103
19 19 35 39 35 44 0 16 -44 10 -88 -12z"/>
<path d="M1265 2455 c-25 -25 -36 -95 -15 -95 6 0 10 12 10 26 0 16 12 37 30
54 17 15 30 31 30 34 0 15 -33 4 -55 -19z"/>
<path d="M875 1579 c-46 -41 -45 -54 5 -29 34 17 47 19 104 11 36 -5 70 -12
75 -15 16 -10 41 5 41 25 0 27 -38 39 -120 39 -63 0 -72 -3 -105 -31z"/>
<path d="M1403 1603 c-28 -5 -47 -29 -39 -48 5 -14 23 -15 139 -9 97 5 139 3
156 -5 31 -17 39 -6 15 20 -35 39 -68 49 -161 48 -48 -1 -98 -4 -110 -6z"/>
<path d="M1933 1554 c4 -4 45 -16 90 -25 45 -9 90 -20 100 -24 10 -4 17 -3 17
4 0 5 -24 17 -52 26 -61 19 -167 32 -155 19z"/>
<path d="M1930 1470 c8 -5 27 -10 42 -10 14 0 54 -9 87 -19 34 -10 63 -15 66
-11 7 12 -9 20 -68 36 -61 16 -150 19 -127 4z"/>
<path d="M1495 1450 c9 -29 -12 -52 -35 -40 -27 14 -30 13 -30 -15 0 -28 40
-75 64 -75 28 0 64 22 75 47 16 36 14 51 -14 78 -31 32 -69 34 -60 5z"/>
<path d="M989 1446 c6 -7 9 -21 5 -30 -7 -18 -29 -21 -39 -6 -4 6 -11 8 -16 5
-29 -19 16 -95 57 -95 32 0 74 42 74 75 0 33 -33 65 -66 65 -21 0 -24 -3 -15
-14z"/>
<path d="M1950 1400 c36 -12 72 -12 65 0 -3 6 -25 10 -48 9 -36 -1 -38 -2 -17
-9z"/>
<path d="M2009 1295 c-29 -15 -62 -76 -57 -102 5 -29 28 -27 28 2 0 16 12 38
29 56 31 30 46 36 56 19 9 -15 25 -12 25 5 0 14 -29 35 -47 35 -4 -1 -20 -7
-34 -15z"/>
<path d="M1445 1040 c-55 -32 -150 -60 -203 -60 -18 0 -47 7 -64 16 -20 10
-34 12 -40 6 -17 -17 46 -42 106 -42 30 0 81 8 115 19 66 20 151 66 151 81 0
15 -10 12 -65 -20z"/>
<path d="M1891 1051 c-23 -42 -60 -195 -72 -292 -21 -188 10 -387 54 -343 3 4
-1 21 -10 38 -33 64 -27 320 12 469 12 47 31 98 53 140 2 4 -3 7 -12 7 -8 0
-20 -8 -25 -19z"/>
</g>
</svg>
