<?xml version="1.0" standalone="no"?>
<!DOCTYPE svg PUBLIC "-//W3C//DTD SVG 20010904//EN"
 "http://www.w3.org/TR/2001/REC-SVG-20010904/DTD/svg10.dtd">
<svg version="1.0" xmlns="http://www.w3.org/2000/svg"
 width="300.000000pt" height="301.000000pt" viewBox="0 0 300.000000 301.000000"
 preserveAspectRatio="xMidYMid meet">
<metadata>
Created by potrace 1.10, written by Peter Selinger 2001-2011
</metadata>
<g transform="translate(0.000000,301.000000) scale(0.100000,-0.100000)"
fill="#000000" stroke="none">
<path d="M1325 2954 c-345 -51 -617 -185 -850 -419 -219 -218 -361 -493 -410
-793 -22 -129 -16 -416 10 -532 131 -589 587 -1029 1176 -1136 141 -26 383
-23 519 5 590 123 1023 551 1152 1138 31 144 32 435 0 580 -125 576 -547 1002
-1121 1134 -63 15 -133 21 -266 24 -99 2 -193 1 -210 -1z m445 -64 c277 -56
504 -176 706 -372 116 -112 193 -215 265 -351 164 -312 207 -664 123 -999
-143 -566 -602 -976 -1183 -1059 -116 -16 -370 -6 -481 20 -276 64 -496 186
-696 385 -202 202 -326 430 -386 709 -17 83 -22 136 -22 282 -1 200 16 303 76
474 178 505 626 863 1164 931 109 14 316 4 434 -20z"/>
<path d="M1395 2555 c-45 -24 -63 -44 -77 -81 -12 -35 -22 -42 -33 -24 -10 17
-43 11 -58 -10 -13 -19 -16 -19 -50 -5 -20 8 -62 15 -93 15 -103 0 -152 -53
-141 -151 5 -43 4 -50 -11 -48 -36 3 -52 -2 -52 -16 0 -11 8 -13 31 -8 22 4
38 0 59 -16 28 -20 50 -27 50 -16 0 3 -12 23 -27 46 -58 88 -25 176 71 186 54
6 126 -11 162 -40 14 -10 28 -16 32 -12 4 3 -1 11 -11 17 -14 8 -16 13 -6 24
17 21 35 17 57 -13 22 -30 24 -28 36 29 10 43 62 96 102 104 76 14 183 -41
226 -116 13 -22 26 -40 31 -40 15 0 6 30 -25 76 -58 86 -201 138 -273 99z"/>
<path d="M1730 2521 c0 -5 16 -25 35 -44 38 -38 49 -92 20 -103 -16 -6 -21
-34 -7 -34 5 0 16 8 25 18 23 26 21 84 -4 116 -26 33 -10 34 31 0 44 -38 62
-77 54 -122 l-6 -37 24 27 c47 53 149 61 228 17 91 -52 70 -123 -43 -144 -20
-4 -37 -11 -37 -16 0 -13 64 -11 94 2 14 7 32 9 42 5 15 -6 16 -8 0 -24 -18
-20 -21 -48 -7 -56 5 -4 22 -1 37 4 64 25 144 -31 144 -99 0 -66 -73 -104
-130 -69 -24 15 -41 1 -18 -16 20 -14 77 -33 129 -41 19 -3 44 -12 55 -19 17
-13 15 -14 -26 -14 -54 1 -90 -9 -90 -25 0 -7 19 -21 42 -32 86 -42 114 -131
59 -186 -36 -35 -79 -38 -135 -9 -22 10 -42 17 -46 15 -4 -3 -10 9 -12 25 -4
24 -1 30 13 30 28 0 49 11 49 25 0 9 -11 12 -39 8 -48 -7 -113 21 -170 73 -30
26 -41 43 -37 57 2 10 2 26 -1 34 -8 20 -23 -3 -23 -37 0 -37 -43 -121 -79
-154 -35 -33 -36 -32 -20 13 16 46 -4 121 -47 168 l-35 38 7 -52 c8 -67 -8
-114 -52 -153 -40 -35 -60 -40 -44 -11 16 31 12 86 -8 104 -26 23 -30 22 -46
-17 -28 -67 -121 -102 -200 -76 -36 12 -36 12 -34 62 4 67 -17 76 -25 11 -4
-37 -12 -54 -37 -76 -29 -26 -39 -29 -77 -24 -25 3 -58 15 -75 27 -39 29 -52
15 -14 -15 36 -28 30 -50 -19 -70 -48 -21 -112 -18 -164 5 -50 23 -67 17 -33
-11 25 -20 83 -39 120 -39 33 0 27 -27 -8 -34 -36 -7 -39 -29 -6 -44 22 -10
24 -14 15 -44 -5 -18 -9 -64 -9 -103 l0 -70 -26 33 c-46 59 -116 79 -161 47
-22 -15 -23 -14 -38 21 -8 20 -22 62 -30 93 -14 52 -13 57 3 69 10 8 30 11 49
8 64 -10 91 12 73 59 -14 36 -31 31 -23 -5 l6 -31 -49 2 c-27 1 -67 -5 -89
-14 -60 -24 -135 -22 -176 6 -29 19 -34 30 -37 66 -3 39 1 46 36 81 23 21 60
43 86 51 68 20 58 48 -26 74 -61 19 -10 19 62 0 30 -8 56 -12 59 -10 2 3 -14
21 -36 40 -90 77 -109 192 -42 261 57 59 154 69 238 26 22 -12 43 -17 46 -12
8 13 -64 48 -124 61 -93 20 -191 -27 -220 -104 -25 -64 -8 -143 41 -202 l26
-30 -68 0 c-54 0 -75 -5 -96 -21 -38 -28 -45 -50 -13 -39 37 13 136 12 150 -2
10 -10 6 -15 -17 -23 -81 -29 -134 -87 -134 -146 0 -74 97 -133 195 -119 l42
7 7 -43 c4 -24 18 -69 32 -99 21 -46 23 -61 14 -84 -41 -108 45 -246 153 -246
37 0 74 21 63 38 -4 7 -14 7 -34 0 -110 -42 -223 143 -141 230 26 28 83 29
128 1 24 -14 41 -39 64 -89 17 -39 35 -70 40 -70 4 0 5 10 1 23 -10 26 -8 267
1 297 5 17 2 23 -17 28 l-23 6 25 6 c16 4 26 14 28 28 2 15 17 28 47 41 24 11
46 28 50 40 5 18 14 21 60 21 42 0 60 5 82 24 21 17 33 22 44 15 69 -45 170
-29 236 37 41 42 43 43 43 18 0 -39 -18 -64 -46 -64 -42 0 -22 -25 22 -28 70
-5 137 56 152 138 l9 45 11 -40 c17 -57 15 -85 -8 -128 -24 -44 -24 -47 -5
-47 54 0 134 76 150 143 4 15 8 27 9 27 2 0 21 -18 44 -40 23 -21 60 -45 82
-51 34 -10 40 -17 45 -46 3 -18 7 -48 10 -66 3 -18 -2 -71 -10 -118 -18 -100
-19 -199 -4 -270 13 -58 1 -140 -30 -212 -45 -103 -154 -213 -290 -293 -54
-31 -77 -38 -135 -42 -62 -4 -81 0 -153 27 -148 58 -300 173 -379 287 -21 30
-39 52 -42 50 -12 -13 62 -117 129 -179 85 -81 180 -141 287 -182 62 -25 70
-31 61 -47 -5 -10 -12 -53 -16 -96 -6 -85 8 -131 48 -153 32 -17 34 -4 5 34
-23 30 -26 43 -25 108 1 41 4 85 8 99 6 22 11 24 54 21 59 -3 104 11 191 63
137 82 249 207 295 329 24 65 28 175 9 238 -8 30 -8 62 1 136 15 123 20 143
37 143 9 0 14 11 14 29 l0 30 37 -15 c69 -29 143 5 164 76 10 33 9 47 -5 85
-17 43 -68 95 -94 95 -7 0 -12 5 -12 11 0 12 55 8 108 -7 16 -5 22 -2 22 9 0
20 -55 62 -92 71 l-26 6 29 29 c48 48 35 119 -31 175 -34 28 -106 36 -128 14
-9 -9 -12 -9 -12 0 0 6 11 19 25 28 20 13 23 19 14 30 -6 8 -18 14 -25 14 -16
0 -19 16 -4 25 6 3 10 21 10 39 0 26 -9 41 -39 69 -60 54 -171 75 -233 43 -25
-13 -27 -13 -33 12 -10 42 -42 79 -88 101 -45 22 -87 28 -87 12z"/>
<path d="M1680 2474 c0 -3 14 -19 30 -34 18 -17 30 -38 30 -54 0 -14 5 -26 10
-26 21 0 10 70 -15 95 -22 23 -55 34 -55 19z"/>
<path d="M1365 1592 c-55 -35 -76 -79 -24 -51 17 8 59 10 156 5 118 -6 134 -5
139 9 14 36 -20 50 -134 53 -91 3 -111 0 -137 -16z"/>
<path d="M1923 1600 c-13 -5 -23 -18 -23 -29 0 -20 25 -35 41 -25 5 3 39 10
75 15 57 8 70 6 104 -11 50 -25 51 -12 5 29 -33 29 -41 31 -108 30 -40 0 -82
-4 -94 -9z"/>
<path d="M932 1541 c-34 -10 -66 -21 -69 -25 -14 -14 6 -13 72 4 39 11 82 19
97 19 15 1 30 6 33 11 10 16 -63 11 -133 -9z"/>
<path d="M939 1465 c-55 -15 -71 -23 -64 -35 3 -4 32 1 66 11 33 10 73 19 87
19 15 0 34 5 42 10 22 14 -75 11 -131 -5z"/>
<path d="M1445 1445 c-28 -27 -30 -42 -14 -78 11 -25 47 -47 75 -47 24 0 64
47 64 75 0 28 -3 29 -30 15 -23 -12 -44 11 -35 40 9 29 -29 27 -60 -5z"/>
<path d="M1950 1440 c-11 -11 -20 -31 -20 -45 0 -33 42 -75 74 -75 41 0 86 76
57 95 -5 3 -12 1 -16 -5 -10 -15 -32 -12 -39 6 -4 9 -1 23 5 30 19 23 -38 17
-61 -6z"/>
<path d="M985 1400 c-7 -12 29 -12 65 0 21 7 19 8 -17 9 -23 1 -45 -3 -48 -9z"/>
<path d="M928 1299 c-10 -5 -18 -17 -18 -24 0 -18 5 -19 31 -2 18 11 24 8 50
-21 16 -18 29 -44 29 -58 0 -28 23 -29 28 -1 5 27 -29 87 -59 102 -33 17 -38
18 -61 4z"/>
<path d="M1072 1063 c44 -88 64 -164 79 -292 15 -120 8 -276 -14 -317 -16 -30
-14 -44 5 -44 5 0 16 17 26 37 23 54 23 297 -1 411 -26 121 -58 206 -81 210
-10 2 -16 0 -14 -5z"/>
<path d="M1490 1060 c0 -15 85 -61 151 -81 34 -11 85 -19 115 -19 60 0 123 25
106 42 -6 6 -20 4 -40 -6 -17 -9 -46 -16 -64 -16 -53 0 -148 28 -205 60 -58
33 -63 35 -63 20z"/>
</g>
</svg>
